<svg width="512" height="512" viewBox="0 0 512 512" fill="none" xmlns="http://www.w3.org/2000/svg">
<g clip-path="url(#clip0_1317_394)">
<g clip-path="url(#clip1_1317_394)">
<path d="M425.3 49.9C380.5 5.29999 316.1 0.299988 237.4 0.299988C158.6 0.299988 94.1996 5.29999 49.3996 50.1C4.59961 94.9 0.0996094 159.2 0.0996094 237.9C0.0996094 316.6 4.59961 381 49.3996 425.7C94.1996 470.4 158.6 475 237.4 475C316.2 475 380.6 470.5 425.4 425.7C470.2 380.9 474.7 316.6 474.7 237.8C474.8 159.1 470.2 94.6 425.3 49.9ZM278.2 411C218 422.2 164.9 405.9 123.8 358C121.7 355.5 120 352.6 118.2 349.9C117.5 348.7 117.1 347.4 115.9 344.8C122 347 125.3 350.5 128.8 353.5C158.4 377.9 192.2 392.4 230.7 393.2C303.5 394.8 366.9 346.9 380.6 275.4C392.2 215.2 372.5 165.3 322.6 129.6C262.5 86.6 179.1 99.7 134.6 158.2C105.3 196.7 98.8996 239.7 114.3 285.6C117.9 296.5 118.1 306.3 110.7 315.5C104.4 323.3 95.9996 326.3 86.1996 325C75.1996 323.5 67.6996 317.1 64.0996 306.7C58.7996 291.3 55.1996 275.4 54.2996 259.2C50.9996 199.9 69.9996 148.8 114 108.6C153.7 72.2 201.2 55.7 255.3 61.1C335.8 69.2 399.4 125.7 415.1 204C434.5 300.8 374.5 393 278.2 411ZM238.9 258.1C241.2 259.2 241.4 259.3 244.7 259.3C247.9 259.3 248.3 259.2 250.3 258.3C255.9 255.6 259.3 249.4 257.9 244.1L257.4 242.2L289.3 210.3C306.8 192.8 321.2 178.4 321.3 178.5C321.3 178.5 319.9 183 318.1 188.3C303.3 232.3 291.2 273.6 285.8 297.9C285.2 300.7 284.7 303 284.6 303C284.6 303 279.9 303.2 274.3 303.4C260.4 303.9 252.7 304.7 244.2 306.4C228.4 309.7 216.6 315.7 204.8 326.5L202.9 328.2L182.7 308.1L162.5 288L165.4 284.8C180.8 267.7 186.7 249 187.4 215.5C187.5 207.4 187.6 206.2 188.1 206.1C188.4 206 190.9 205.4 193.7 204.8C215.7 200 253.9 188.8 299 173.9C306.2 171.5 312.2 169.6 312.3 169.6C312.3 169.7 298.1 184 280.6 201.5L248.8 233.3L247.2 232.9C243.1 231.9 238.7 233.3 235.4 236.5C228.7 243.3 230.5 254 238.9 258.1Z" fill="white"/>
</g>
</g>
<defs>
<clipPath id="clip0_1317_394">
<rect width="512" height="512" fill="white"/>
</clipPath>
<clipPath id="clip1_1317_394">
<rect width="1112" height="475" fill="white"/>
</clipPath>
</defs>
</svg>
